<svg width="65.000000" height="48.000000" viewBox="0 0 65 48" fill="none" xmlns="http://www.w3.org/2000/svg" xmlns:xlink="http://www.w3.org/1999/xlink">
	<desc>
			Created with Pixso.
	</desc>
	<defs>
		<filter id="filter_20_326_dd" x="-0.345459" y="-0.706543" width="64.990967" height="48.407227" filterUnits="userSpaceOnUse" color-interpolation-filters="sRGB">
			<feFlood flood-opacity="0" result="BackgroundImageFix"/>
			<feColorMatrix in="SourceAlpha" type="matrix" values="0 0 0 0 0 0 0 0 0 0 0 0 0 0 0 0 0 0 127 0" result="hardAlpha"/>
			<feOffset dx="0" dy="0.448214"/>
			<feGaussianBlur stdDeviation="1.49405"/>
			<feComposite in2="hardAlpha" operator="out" k2="-1" k3="1"/>
			<feColorMatrix type="matrix" values="0 0 0 0 0.71765 0 0 0 0 0.71765 0 0 0 0 0.71765 0 0 0 0.078 0"/>
			<feBlend mode="normal" in2="BackgroundImageFix" result="effect_dropShadow_1"/>
			<feColorMatrix in="SourceAlpha" type="matrix" values="0 0 0 0 0 0 0 0 0 0 0 0 0 0 0 0 0 0 127 0" result="hardAlpha"/>
			<feOffset dx="0" dy="4.48214"/>
			<feGaussianBlur stdDeviation="2.9881"/>
			<feComposite in2="hardAlpha" operator="out" k2="-1" k3="1"/>
			<feColorMatrix type="matrix" values="0 0 0 0 0.71765 0 0 0 0 0.71765 0 0 0 0 0.71765 0 0 0 0.078 0"/>
			<feBlend mode="normal" in2="effect_dropShadow_1" result="effect_dropShadow_2"/>
			<feBlend mode="normal" in="SourceGraphic" in2="effect_dropShadow_2" result="shape"/>
		</filter>
	</defs>
	<g filter="url(#filter_20_326_dd)">
		<rect id="Badge" rx="5.490625" width="46.838390" height="30.254465" transform="translate(8.730842 3.887946)" fill="#FFFFFF" fill-opacity="1.000000"/>
		<path id=" Pay" d="M23.91 15.08C24.23 14.69 24.44 14.17 24.38 13.63C23.93 13.65 23.37 13.93 23.05 14.32C22.76 14.65 22.5 15.2 22.57 15.71C23.08 15.75 23.59 15.46 23.91 15.08ZM33.57 17C33.57 15.38 32.45 14.27 30.84 14.27L27.72 14.27L27.72 22.58L29.01 22.58L29.01 19.74L30.8 19.74C32.43 19.74 33.57 18.62 33.57 17ZM30.49 18.66L29.01 18.66L29.01 15.35L30.5 15.35C31.62 15.35 32.25 15.95 32.25 17C32.25 18.05 31.62 18.66 30.49 18.66ZM24.38 15.81C23.92 15.78 23.51 15.94 23.18 16.08C22.97 16.16 22.79 16.23 22.65 16.23C22.49 16.23 22.31 16.16 22.1 16.07C21.82 15.96 21.5 15.84 21.16 15.84C20.4 15.85 19.69 16.29 19.3 16.97C18.51 18.35 19.09 20.39 19.87 21.51C20.24 22.06 20.7 22.67 21.3 22.65C21.86 22.63 22.08 22.28 22.77 22.28C23.12 22.28 23.34 22.38 23.56 22.47C23.76 22.56 23.96 22.64 24.25 22.64C24.87 22.63 25.26 22.08 25.64 21.53C26.07 20.9 26.25 20.29 26.26 20.25C26.25 20.24 25.06 19.79 25.05 18.43C25.04 17.35 25.87 16.81 26.01 16.72C26.02 16.71 26.02 16.71 26.03 16.71C25.49 15.92 24.66 15.83 24.38 15.81ZM33.91 20.86C33.91 19.8 34.72 19.14 36.16 19.06L37.82 18.97L37.82 18.5C37.82 17.83 37.37 17.42 36.61 17.42C35.89 17.42 35.44 17.77 35.33 18.31L34.15 18.31C34.22 17.22 35.16 16.41 36.65 16.41C38.12 16.41 39.06 17.19 39.06 18.4L39.06 22.58L37.87 22.58L37.87 21.58L37.84 21.58C37.49 22.26 36.72 22.68 35.93 22.68C34.74 22.68 33.91 21.95 33.91 20.86ZM40.19 23.8L40.19 24.81C40.28 24.83 40.59 24.84 40.69 24.84C41.95 24.84 42.55 24.36 43.07 22.9L45.34 16.52L44.02 16.52L42.49 21.45L42.47 21.45L40.94 16.52L39.59 16.52L41.78 22.58C41.78 22.59 41.67 22.95 41.67 22.96C41.48 23.58 41.17 23.82 40.59 23.82C40.49 23.82 40.28 23.82 40.19 23.8ZM37.82 20.31L37.82 19.83L36.33 19.92C35.59 19.98 35.17 20.3 35.17 20.82C35.17 21.35 35.6 21.7 36.27 21.7C37.14 21.7 37.82 21.1 37.82 20.31Z" fill="#000008" fill-opacity="1.000000" fill-rule="evenodd"/>
		<rect id="Badge" rx="5.490625" width="46.838390" height="30.254465" transform="translate(8.730842 3.887946)" stroke="#D6DCE5" stroke-opacity="1.000000" stroke-width="0.224107"/>
	</g>
</svg>
