<svg width="6.000000" height="11.000000" viewBox="0 0 6 11" fill="none" xmlns="http://www.w3.org/2000/svg" xmlns:xlink="http://www.w3.org/1999/xlink">
	<desc>
			Created with Pixso.
	</desc>
	<defs/>
	<path id="Vector" d="M0.53 -0.54L5.53 4.46C5.6 4.53 5.65 4.62 5.69 4.71C5.73 4.8 5.75 4.9 5.75 5C5.75 5.09 5.73 5.19 5.69 5.28C5.65 5.37 5.6 5.46 5.53 5.53L0.53 10.53C0.38 10.67 0.19 10.75 -0.01 10.75C-0.2 10.75 -0.4 10.67 -0.54 10.53C-0.68 10.39 -0.76 10.19 -0.76 10C-0.76 9.8 -0.68 9.61 -0.54 9.46L3.93 5L-0.54 0.53C-0.68 0.38 -0.76 0.19 -0.76 -0.01C-0.76 -0.2 -0.68 -0.4 -0.54 -0.54C-0.4 -0.68 -0.21 -0.76 -0.01 -0.76C0.19 -0.76 0.38 -0.68 0.53 -0.54L0.53 -0.54Z" fill="#000000" fill-opacity="0.600000" fill-rule="nonzero"/>
</svg>
