<svg width="18.000000" height="19.000000" viewBox="0 0 18 19" fill="none" xmlns="http://www.w3.org/2000/svg" xmlns:xlink="http://www.w3.org/1999/xlink">
	<desc>
			Created with Pixso.
	</desc>
	<defs/>
	<path id="Vector" d="M17.25 2.5L13.5 2.5L13.5 1.75C13.5 1.15 13.26 0.58 12.84 0.15C12.41 -0.27 11.84 -0.5 11.25 -0.5L6.75 -0.5C6.15 -0.5 5.58 -0.27 5.15 0.15C4.73 0.58 4.5 1.15 4.5 1.75L4.5 2.5L0.75 2.5C0.55 2.5 0.36 2.57 0.21 2.71C0.07 2.86 0 3.05 0 3.25C0 3.44 0.07 3.63 0.21 3.78C0.36 3.92 0.55 4 0.75 4L1.5 4L1.5 17.5C1.5 17.89 1.65 18.27 1.93 18.56C2.22 18.84 2.6 19 3 19L15 19C15.39 19 15.77 18.84 16.06 18.56C16.34 18.27 16.5 17.89 16.5 17.5L16.5 4L17.25 4C17.44 4 17.63 3.92 17.78 3.78C17.92 3.63 18 3.44 18 3.25C18 3.05 17.92 2.86 17.78 2.71C17.63 2.57 17.44 2.5 17.25 2.5ZM7.5 13.75C7.5 13.94 7.42 14.13 7.28 14.28C7.13 14.42 6.94 14.5 6.75 14.5C6.55 14.5 6.36 14.42 6.21 14.28C6.07 14.13 6 13.94 6 13.75L6 7.75C6 7.55 6.07 7.36 6.21 7.21C6.36 7.07 6.55 7 6.75 7C6.94 7 7.13 7.07 7.28 7.21C7.42 7.36 7.5 7.55 7.5 7.75L7.5 13.75ZM12 13.75C12 13.94 11.92 14.13 11.78 14.28C11.63 14.42 11.44 14.5 11.25 14.5C11.05 14.5 10.86 14.42 10.71 14.28C10.57 14.13 10.5 13.94 10.5 13.75L10.5 7.75C10.5 7.55 10.57 7.36 10.71 7.21C10.86 7.07 11.05 7 11.25 7C11.44 7 11.63 7.07 11.78 7.21C11.92 7.36 12 7.55 12 7.75L12 13.75ZM12 2.5L6 2.5L6 1.75C6 1.55 6.07 1.36 6.21 1.21C6.36 1.07 6.55 1 6.75 1L11.25 1C11.44 1 11.63 1.07 11.78 1.21C11.92 1.36 12 1.55 12 1.75L12 2.5Z" fill="#FF3333" fill-opacity="1.000000" fill-rule="nonzero"/>
</svg>
