<svg width="207.000000" height="34.000000" viewBox="0 0 207 34" fill="none" xmlns="http://www.w3.org/2000/svg" xmlns:xlink="http://www.w3.org/1999/xlink">
	<desc>
			Created with Pixso.
	</desc>
	<defs/>
	<path id="Vector" d="M16.12 30.45C8.89 30.45 2.71 23.88 2.71 16.72C2.71 9.59 8.76 2.89 16.07 2.89C20.88 2.89 24.34 5.22 27.16 8.86L30.7 8.86C29.64 6.95 28.51 5.19 26.78 3.82C23.8 1.42 19.95 0 16.12 0C6.95 0 -0.52 7.57 -0.52 16.7C-0.52 25.85 7.05 33.34 16.18 33.34C19.9 33.34 23.54 31.97 26.47 29.67C28.3 28.2 29.59 26.29 30.84 24.32L27.29 24.32C24.5 27.97 20.93 30.45 16.12 30.45ZM52.83 13C50.61 10.13 47.59 8.32 43.84 8.32C37.12 8.32 31.58 13.77 31.58 20.5C31.58 27.22 37.14 32.72 43.84 32.72C47.74 32.72 50.46 31.09 52.83 28.1L52.83 32.18L55.76 32.18L55.76 8.89L52.83 8.89L52.83 13ZM43.68 30.03C38.54 30.03 34.48 25.56 34.48 20.52C34.48 15.51 38.51 11.01 43.68 11.01C48.83 11.01 52.83 15.51 52.83 20.52C52.83 25.56 48.8 30.03 43.68 30.03ZM59.3 32.18L62.43 32.18L62.43 0.67L59.3 0.67L59.3 32.18ZM74.24 28.48L66.33 8.89L63.23 8.89L72.71 32.18L75.87 32.18L85.33 8.89L82.28 8.89L74.24 28.48ZM86.62 32.18L89.75 32.18L89.75 8.89L86.62 8.89L86.62 32.18ZM86.62 5.89L89.75 5.89L89.75 0.67L86.62 0.67L86.62 5.89ZM103.22 8.32C100.27 8.32 98.18 9.87 96.24 11.94L96.24 8.89L93.34 8.89L93.34 32.18L96.42 32.18L96.42 17.99C96.39 14.24 99.5 11.01 103.27 11.01C108 11.01 110.38 15.12 110.38 19.36L110.38 32.18L113.27 32.18L113.27 19.36C113.27 13.31 109.73 8.32 103.22 8.32ZM142.31 0.67L128.09 18.74L128.09 0.67L125.01 0.67L125.01 32.18L128.09 32.18L128.09 23.52L132.12 18.5L142.38 32.18L146.29 32.18L134.09 16.02L146.29 0.67L142.31 0.67ZM147.42 32.18L150.48 32.18L150.48 0.67L147.42 0.67L147.42 32.18ZM175.73 14.76C173.61 10.8 169.37 8.32 164.9 8.32C158.23 8.32 152.59 13.88 152.59 20.55C152.59 27.27 158.28 32.72 164.95 32.72C168.13 32.72 171.26 31.46 173.56 29.26C174.96 27.94 175.79 26.28 176.53 24.55L173.25 24.55C171.6 27.78 168.67 30.03 164.9 30.03C162.6 30.03 160.35 29.1 158.64 27.52C156.89 25.92 156.11 23.96 155.77 21.63L177.26 21.63C177.26 19.2 176.92 16.88 175.73 14.76ZM155.88 18.94C156.81 14.58 160.25 11.01 164.95 11.01C168.91 11.01 173.15 13.44 174.08 18.94L155.88 18.94ZM179.53 32.18L182.61 32.18L182.61 8.89L179.53 8.89L179.53 32.18ZM179.53 5.99L182.61 5.99L182.61 0.67L179.53 0.67L179.53 5.99ZM196.13 8.32C193.13 8.32 191.04 9.87 189.07 11.94L189.07 8.89L186.13 8.89L186.13 32.18L189.23 32.18L189.23 17.99C189.2 14.21 192.38 11.01 196.18 11.01C200.89 11.01 203.37 15.12 203.37 19.36L203.37 32.18L206.27 32.18L206.27 19.36C206.27 13.31 202.67 8.32 196.13 8.32Z" fill="#FFFFFF" fill-opacity="1.000000" fill-rule="evenodd"/>
</svg>
