<svg width="24.000000" height="24.000000" viewBox="0 0 24 24" fill="none" xmlns="http://www.w3.org/2000/svg" xmlns:xlink="http://www.w3.org/1999/xlink">
	<desc>
			Created with Pixso.
	</desc>
	<defs>
		<clipPath id="clip9_137">
			<rect id="Frame" width="24.000000" height="24.000000" transform="translate(0.000000 -0.421021)" fill="white" fill-opacity="0"/>
		</clipPath>
	</defs>
	<rect id="Frame" width="24.000000" height="24.000000" transform="translate(0.000000 -0.421021)" fill="#FFFFFF" fill-opacity="0"/>
	<g clip-path="url(#clip9_137)">
		<path id="Vector" d="M12 1.82C10.07 1.82 8.18 2.4 6.58 3.47C4.97 4.54 3.73 6.06 2.99 7.84C2.25 9.62 2.06 11.58 2.43 13.48C2.81 15.37 3.74 17.1 5.1 18.47C6.46 19.83 8.2 20.76 10.09 21.14C11.98 21.51 13.94 21.32 15.73 20.58C17.51 19.84 19.03 18.59 20.1 16.99C21.17 15.39 21.75 13.5 21.75 11.57C21.74 8.99 20.71 6.51 18.89 4.68C17.06 2.85 14.58 1.83 12 1.82ZM16.28 9.85L11.03 15.1C10.96 15.17 10.87 15.23 10.78 15.27C10.69 15.31 10.59 15.32 10.5 15.32C10.4 15.32 10.3 15.31 10.21 15.27C10.12 15.23 10.03 15.17 9.96 15.1L7.71 12.85C7.57 12.71 7.49 12.52 7.49 12.32C7.49 12.13 7.57 11.93 7.71 11.79C7.86 11.65 8.05 11.57 8.25 11.57C8.44 11.57 8.63 11.65 8.78 11.79L10.5 13.51L15.21 8.79C15.28 8.72 15.37 8.67 15.46 8.63C15.55 8.59 15.65 8.57 15.75 8.57C15.84 8.57 15.94 8.59 16.03 8.63C16.12 8.67 16.21 8.72 16.28 8.79C16.35 8.86 16.4 8.95 16.44 9.04C16.48 9.13 16.5 9.23 16.5 9.32C16.5 9.42 16.48 9.52 16.44 9.61C16.4 9.7 16.35 9.78 16.28 9.85Z" fill="#01AB31" fill-opacity="1.000000" fill-rule="nonzero"/>
	</g>
</svg>
