<svg width="13.000000" height="10.000000" viewBox="0 0 13 10" fill="none" xmlns="http://www.w3.org/2000/svg" xmlns:xlink="http://www.w3.org/1999/xlink">
	<desc>
			Created with Pixso.
	</desc>
	<defs/>
	<path id="Vector" d="M12.53 1.03L4.53 9.03C4.46 9.1 4.37 9.15 4.28 9.19C4.19 9.23 4.09 9.25 3.99 9.25C3.9 9.25 3.8 9.23 3.71 9.19C3.62 9.15 3.53 9.1 3.46 9.03L-0.04 5.53C-0.11 5.46 -0.16 5.37 -0.2 5.28C-0.24 5.19 -0.26 5.09 -0.26 4.99C-0.26 4.9 -0.24 4.8 -0.2 4.71C-0.16 4.62 -0.11 4.53 -0.04 4.46C0.03 4.39 0.12 4.34 0.21 4.3C0.3 4.26 0.4 4.24 0.49 4.24C0.59 4.24 0.69 4.26 0.78 4.3C0.87 4.34 0.96 4.39 1.03 4.46L4 7.43L11.46 -0.04C11.61 -0.18 11.8 -0.26 12 -0.26C12.2 -0.26 12.39 -0.18 12.53 -0.04C12.67 0.11 12.75 0.3 12.75 0.5C12.75 0.69 12.67 0.89 12.53 1.03L12.53 1.03Z" fill="#FFFFFF" fill-opacity="1.000000" fill-rule="nonzero"/>
</svg>
