<svg width="18.000000" height="15.000000" viewBox="0 0 18 15" fill="none" xmlns="http://www.w3.org/2000/svg" xmlns:xlink="http://www.w3.org/1999/xlink">
	<desc>
			Created with Pixso.
	</desc>
	<defs/>
	<path id="Vector" d="M10.79 -0.55L17.54 6.2C17.65 6.3 17.73 6.43 17.79 6.56C17.84 6.7 17.87 6.85 17.87 7C17.87 7.14 17.84 7.29 17.79 7.43C17.73 7.56 17.65 7.69 17.54 7.79L10.79 14.54C10.58 14.75 10.29 14.87 9.99 14.87C9.7 14.87 9.41 14.75 9.2 14.54C8.99 14.33 8.87 14.04 8.87 13.75C8.87 13.45 8.99 13.16 9.2 12.95L14.03 8.12L0.25 8.12C-0.05 8.12 -0.34 8 -0.55 7.79C-0.76 7.58 -0.88 7.29 -0.88 7C-0.88 6.7 -0.76 6.41 -0.55 6.2C-0.34 5.99 -0.05 5.87 0.25 5.87L14.03 5.87L9.2 1.04C8.98 0.83 8.87 0.54 8.87 0.24C8.87 -0.05 8.98 -0.34 9.2 -0.55C9.41 -0.76 9.69 -0.88 9.99 -0.88C10.29 -0.88 10.58 -0.76 10.79 -0.55L10.79 -0.55Z" fill="#FFFFFF" fill-opacity="1.000000" fill-rule="nonzero"/>
</svg>
