<svg width="21.000000" height="15.000000" viewBox="0 0 21 15" fill="none" xmlns="http://www.w3.org/2000/svg" xmlns:xlink="http://www.w3.org/1999/xlink">
	<desc>
			Created with Pixso.
	</desc>
	<defs/>
	<path id="Vector" d="M19 -0.88L1 -0.88C0.7 -0.88 0.41 -0.76 0.2 -0.55C-0.01 -0.34 -0.13 -0.05 -0.13 0.25L-0.13 13C-0.13 13.49 0.07 13.97 0.42 14.32C0.77 14.67 1.25 14.87 1.75 14.87L18.25 14.87C18.74 14.87 19.22 14.67 19.57 14.32C19.92 13.97 20.12 13.49 20.12 13L20.12 0.25C20.12 -0.05 20 -0.34 19.79 -0.55C19.58 -0.76 19.29 -0.88 19 -0.88ZM10 6.97L3.89 1.37L16.1 1.37L10 6.97ZM6.69 7L2.12 11.19L2.12 2.8L6.69 7ZM8.36 8.52L9.23 9.32C9.44 9.52 9.71 9.62 10 9.62C10.28 9.62 10.55 9.52 10.76 9.32L11.63 8.52L16.1 12.62L3.89 12.62L8.36 8.52ZM13.3 7L17.87 2.8L17.87 11.19L13.3 7Z" fill="#000000" fill-opacity="0.400000" fill-rule="nonzero"/>
</svg>
