<svg width="28.000000" height="28.000000" viewBox="0 0 28 28" fill="none" xmlns="http://www.w3.org/2000/svg" xmlns:xlink="http://www.w3.org/1999/xlink">
	<desc>
			Created with Pixso.
	</desc>
	<defs/>
	<circle id="BG" cx="14.000000" cy="14.000000" r="14.000000" fill="#FFFFFF" fill-opacity="1.000000"/>
	<circle id="BG" cx="14.000000" cy="14.000000" r="13.500000" stroke="#000000" stroke-opacity="0.200000" stroke-width="1.000000"/>
	<path id="Vector" d="M14.6 7.22C11.01 7.22 8.12 10.11 8.12 13.7C8.12 16.56 9.98 18.99 12.55 19.86C12.87 19.91 12.98 19.72 12.98 19.53C12.98 19.37 12.98 18.97 12.98 18.43C11.17 18.83 10.79 17.56 10.79 17.56C10.5 16.81 10.07 16.62 10.07 16.62C9.47 16.21 10.12 16.21 10.12 16.21C10.77 16.27 11.12 16.89 11.12 16.89C11.69 17.89 12.63 17.59 13.01 17.43C13.06 17 13.22 16.73 13.41 16.56C11.98 16.4 10.47 15.83 10.47 13.35C10.47 12.65 10.71 12.05 11.15 11.62C11.09 11.46 10.85 10.81 11.2 9.89C11.2 9.89 11.74 9.73 12.98 10.57C13.49 10.43 14.06 10.35 14.6 10.35C15.14 10.35 15.71 10.43 16.22 10.57C17.46 9.73 18 9.89 18 9.89C18.35 10.79 18.14 11.43 18.06 11.62C18.46 12.08 18.73 12.65 18.73 13.35C18.73 15.83 17.22 16.37 15.76 16.54C16.01 16.73 16.19 17.13 16.19 17.72C16.19 18.59 16.19 19.29 16.19 19.51C16.19 19.67 16.3 19.88 16.65 19.83C19.22 18.99 21.08 16.56 21.08 13.7C21.08 10.11 18.19 7.22 14.6 7.22Z" fill="#000000" fill-opacity="1.000000" fill-rule="evenodd"/>
</svg>
