<svg width="65.000000" height="48.000000" viewBox="0 0 65 48" fill="none" xmlns="http://www.w3.org/2000/svg" xmlns:xlink="http://www.w3.org/1999/xlink">
	<desc>
			Created with Pixso.
	</desc>
	<defs>
		<filter id="filter_20_328_dd" x="-0.731201" y="-0.706543" width="64.990967" height="48.407227" filterUnits="userSpaceOnUse" color-interpolation-filters="sRGB">
			<feFlood flood-opacity="0" result="BackgroundImageFix"/>
			<feColorMatrix in="SourceAlpha" type="matrix" values="0 0 0 0 0 0 0 0 0 0 0 0 0 0 0 0 0 0 127 0" result="hardAlpha"/>
			<feOffset dx="0" dy="0.448214"/>
			<feGaussianBlur stdDeviation="1.49405"/>
			<feComposite in2="hardAlpha" operator="out" k2="-1" k3="1"/>
			<feColorMatrix type="matrix" values="0 0 0 0 0.71765 0 0 0 0 0.71765 0 0 0 0 0.71765 0 0 0 0.078 0"/>
			<feBlend mode="normal" in2="BackgroundImageFix" result="effect_dropShadow_1"/>
			<feColorMatrix in="SourceAlpha" type="matrix" values="0 0 0 0 0 0 0 0 0 0 0 0 0 0 0 0 0 0 127 0" result="hardAlpha"/>
			<feOffset dx="0" dy="4.48214"/>
			<feGaussianBlur stdDeviation="2.9881"/>
			<feComposite in2="hardAlpha" operator="out" k2="-1" k3="1"/>
			<feColorMatrix type="matrix" values="0 0 0 0 0.71765 0 0 0 0 0.71765 0 0 0 0 0.71765 0 0 0 0.078 0"/>
			<feBlend mode="normal" in2="effect_dropShadow_1" result="effect_dropShadow_2"/>
			<feBlend mode="normal" in="SourceGraphic" in2="effect_dropShadow_2" result="shape"/>
		</filter>
	</defs>
	<g filter="url(#filter_20_328_dd)">
		<rect id="Badge" rx="5.490625" width="46.838390" height="30.254465" transform="translate(8.345099 3.887946)" fill="#FFFFFF" fill-opacity="1.000000"/>
		<path id="G Pay" d="M30.75 22.61L29.7 22.61L29.7 14.45L32.48 14.45C33.18 14.45 33.78 14.69 34.27 15.16C34.78 15.62 35.03 16.2 35.03 16.88C35.03 17.57 34.78 18.14 34.27 18.61C33.79 19.07 33.19 19.3 32.48 19.3L30.75 19.3L30.75 22.61ZM30.75 15.46L30.75 18.3L32.5 18.3C32.91 18.3 33.26 18.16 33.54 17.88C33.81 17.6 33.96 17.26 33.96 16.88C33.96 16.5 33.81 16.17 33.54 15.89C33.26 15.6 32.92 15.46 32.5 15.46L30.75 15.46L30.75 15.46Z" fill="#3C4043" fill-opacity="1.000000" fill-rule="nonzero"/>
		<path id="G Pay" d="M37.77 16.84C38.54 16.84 39.16 17.05 39.6 17.47C40.05 17.88 40.27 18.45 40.27 19.17L40.27 22.61L39.28 22.61L39.28 21.83L39.23 21.83C38.8 22.47 38.22 22.79 37.5 22.79C36.88 22.79 36.37 22.61 35.96 22.24C35.54 21.88 35.33 21.42 35.33 20.88C35.33 20.3 35.55 19.84 35.99 19.5C36.42 19.16 37.01 18.99 37.74 18.99C38.36 18.99 38.87 19.1 39.27 19.33L39.27 19.09C39.27 18.73 39.13 18.42 38.84 18.16C38.55 17.91 38.21 17.78 37.82 17.78C37.24 17.78 36.77 18.03 36.44 18.52L35.51 17.95C36.02 17.21 36.77 16.84 37.77 16.84ZM36.41 20.89C36.41 21.17 36.53 21.4 36.76 21.58C36.99 21.76 37.27 21.85 37.58 21.85C38.02 21.85 38.41 21.69 38.76 21.36C39.1 21.03 39.28 20.65 39.28 20.21C38.95 19.95 38.49 19.82 37.91 19.82C37.48 19.82 37.13 19.92 36.85 20.12C36.56 20.34 36.41 20.59 36.41 20.89Z" fill="#3C4043" fill-opacity="1.000000" fill-rule="nonzero"/>
		<path id="G Pay" d="M45.98 17.02L42.48 25.06L41.4 25.06L42.7 22.25L40.39 17.02L41.54 17.02L43.2 21.03L43.22 21.03L44.83 17.02L45.98 17.02Z" fill="#3C4043" fill-opacity="1.000000" fill-rule="nonzero"/>
		<path id="G Pay" d="M26.58 18.64C26.58 18.3 26.55 17.97 26.49 17.66L22.09 17.66L22.09 19.46L24.62 19.46C24.52 20.06 24.19 20.57 23.69 20.91L23.69 22.08L25.19 22.08C26.07 21.27 26.58 20.06 26.58 18.64Z" fill="#4285F4" fill-opacity="1.000000" fill-rule="nonzero"/>
		<path id="G Pay" d="M23.69 20.91C23.27 21.19 22.73 21.36 22.09 21.36C20.87 21.36 19.84 20.54 19.47 19.43L17.91 19.43L17.91 20.63C18.68 22.16 20.27 23.21 22.09 23.21C23.36 23.21 24.42 22.79 25.19 22.08L23.69 20.91Z" fill="#34A853" fill-opacity="1.000000" fill-rule="nonzero"/>
		<path id="G Pay" d="M19.32 18.53C19.32 18.22 19.37 17.92 19.47 17.64L19.47 16.43L17.91 16.43C17.6 17.06 17.42 17.78 17.42 18.53C17.42 19.29 17.6 20 17.91 20.63L19.47 19.43C19.37 19.14 19.32 18.84 19.32 18.53Z" fill="#FABB05" fill-opacity="1.000000" fill-rule="nonzero"/>
		<path id="G Pay" d="M22.09 15.71C22.78 15.71 23.4 15.94 23.89 16.41L25.22 15.07C24.41 14.32 23.36 13.86 22.09 13.86C20.27 13.86 18.68 14.9 17.91 16.43L19.47 17.64C19.84 16.53 20.87 15.71 22.09 15.71Z" fill="#E94235" fill-opacity="1.000000" fill-rule="nonzero"/>
		<rect id="Badge" rx="5.490625" width="46.838390" height="30.254465" transform="translate(8.345099 3.887946)" stroke="#D6DCE5" stroke-opacity="1.000000" stroke-width="0.224107"/>
	</g>
</svg>
