<svg width="156.000000" height="33.000000" viewBox="0 0 156 33" fill="none" xmlns="http://www.w3.org/2000/svg" xmlns:xlink="http://www.w3.org/1999/xlink">
	<desc>
			Created with Pixso.
	</desc>
	<defs/>
	<path id="Vector" d="M140.79 9.29L140.5 9.38C139.36 7.04 137.74 5.17 135.64 3.78C133.57 2.4 130.96 1.7 127.82 1.7C126.07 1.7 124.4 2.06 122.81 2.77C121.23 3.44 119.83 4.42 118.64 5.68C117.47 6.91 116.53 8.41 115.82 10.17C115.1 11.92 114.75 13.87 114.75 15.99C114.75 18.12 115.1 20.06 115.82 21.82C116.53 23.58 117.47 25.09 118.64 26.36C119.83 27.59 121.23 28.54 122.81 29.22C124.4 29.9 126.07 30.24 127.82 30.24C130.93 30.24 133.45 29.78 135.4 28.85C137.37 27.9 139.04 26.45 140.4 24.51L140.69 24.6L140.6 27.56C139.85 28.3 138.99 28.96 138.02 29.55C137.05 30.1 136 30.58 134.86 30.98C133.76 31.35 132.61 31.63 131.41 31.81C130.21 32.03 129.02 32.14 127.82 32.14C125.32 32.14 122.94 31.75 120.68 30.98C118.41 30.21 116.42 29.13 114.7 27.74C112.98 26.32 111.62 24.63 110.62 22.66C109.62 20.65 109.11 18.43 109.11 15.99C109.11 13.56 109.62 11.35 110.62 9.38C111.62 7.38 112.98 5.66 114.7 4.25C116.42 2.83 118.41 1.75 120.68 1.01C122.94 0.24 125.32 -0.15 127.82 -0.15C129.02 -0.15 130.21 -0.06 131.41 0.13C132.61 0.31 133.76 0.61 134.86 1.01C136 1.38 137.05 1.86 138.02 2.44C138.99 3 139.85 3.65 140.6 4.39L140.79 9.29ZM33.73 18.12C33.37 18.28 33.03 18.48 32.71 18.72C32.38 18.97 32.22 19.31 32.22 19.74L32.22 25.43C30.67 27.56 28.68 29.21 26.25 30.38C23.82 31.55 21.13 32.14 18.18 32.14C15.69 32.14 13.31 31.75 11.04 30.98C8.77 30.21 6.78 29.13 5.06 27.74C3.35 26.33 1.99 24.63 0.98 22.66C-0.02 20.65 -0.52 18.43 -0.52 16C-0.52 13.56 -0.02 11.35 0.98 9.38C1.99 7.38 3.35 5.67 5.06 4.25C6.78 2.83 8.77 1.75 11.04 1.01C13.31 0.24 15.69 -0.15 18.18 -0.15C19.38 -0.15 20.58 -0.05 21.78 0.13C22.98 0.32 24.12 0.61 25.23 1.01C26.36 1.38 27.41 1.86 28.38 2.44C29.36 3 30.21 3.65 30.96 4.39L31.15 9.29L30.86 9.38C29.73 7.04 28.11 5.17 26 3.78C23.93 2.4 21.32 1.7 18.18 1.7C16.43 1.7 14.76 2.06 13.18 2.77C11.59 3.45 10.2 4.42 9 5.68C7.83 6.91 6.89 8.41 6.18 10.17C5.47 11.92 5.11 13.87 5.11 16C5.11 18.09 5.45 20.02 6.13 21.78C6.85 23.53 7.78 25.05 8.95 26.31C10.15 27.54 11.54 28.51 13.13 29.22C14.72 29.9 16.4 30.24 18.18 30.24C21.55 30.24 24.43 29.62 26.83 28.39L26.83 19.74C26.83 19.31 26.65 18.97 26.3 18.72C25.97 18.48 25.65 18.28 25.32 18.12L25.37 17.89C25.53 17.92 25.82 17.95 26.24 17.98C26.66 18.01 27.1 18.04 27.55 18.08L31.73 18.08C32.12 18.05 32.49 18.02 32.85 17.98C33.21 17.96 33.48 17.92 33.68 17.89L33.73 18.12ZM68.92 0.82C68.59 0.98 68.27 1.18 67.95 1.43C67.62 1.67 67.44 2.13 67.41 2.81C67.38 3.55 67.35 4.49 67.32 5.63C67.32 6.74 67.3 8.01 67.27 9.43C67.27 10.85 67.26 12.39 67.23 14.05L67.23 19.23C67.2 21.24 66.94 22.95 66.45 24.37C65.96 25.79 65.32 26.97 64.51 27.93C63.73 28.88 62.85 29.64 61.88 30.2C60.94 30.75 60 31.17 59.06 31.44C58.16 31.75 57.3 31.94 56.49 32C55.68 32.09 55.05 32.14 54.6 32.14C52.75 32.14 50.97 31.91 49.25 31.44C47.53 31.01 46.03 30.3 44.73 29.32C43.44 28.33 42.4 27.05 41.62 25.48C40.85 23.9 40.46 21.99 40.46 19.74L40.46 14.52L40.46 9.7C40.46 8.22 40.44 6.9 40.41 5.73C40.41 4.52 40.4 3.55 40.37 2.81C40.34 2.13 40.16 1.67 39.83 1.43C39.51 1.18 39.19 0.98 38.86 0.82L38.91 0.59C39.07 0.62 39.33 0.65 39.68 0.69C40.07 0.71 40.46 0.74 40.85 0.78C41.27 0.78 41.68 0.79 42.07 0.82L43.81 0.82C44.2 0.79 44.61 0.78 45.03 0.78C45.45 0.75 45.84 0.72 46.19 0.69C46.58 0.66 46.86 0.63 47.02 0.59L47.06 0.82C46.71 0.98 46.37 1.18 46.04 1.43C45.75 1.67 45.59 2.13 45.56 2.81C45.53 3.55 45.5 4.52 45.46 5.73L45.46 19.74C45.46 23.1 46.29 25.59 47.94 27.19C49.59 28.79 52.04 29.59 55.28 29.59C56.21 29.59 57.28 29.49 58.48 29.27C59.68 29.02 60.8 28.53 61.83 27.79C62.9 27.05 63.79 26 64.51 24.64C65.25 23.29 65.62 21.48 65.62 19.23C65.62 16.8 65.61 14.72 65.58 12.99C65.58 11.23 65.56 9.74 65.54 8.5C65.54 7.24 65.52 6.16 65.49 5.26C65.46 4.37 65.43 3.55 65.39 2.81C65.36 2.13 65.19 1.67 64.86 1.43C64.54 1.18 64.21 0.98 63.89 0.82L63.93 0.59C64.29 0.65 64.69 0.72 65.15 0.78C65.6 0.81 66.02 0.82 66.41 0.82C66.77 0.82 67.17 0.81 67.62 0.78C68.11 0.72 68.53 0.65 68.89 0.59L68.92 0.82ZM104.17 9.29L103.88 9.38C102.75 7.04 101.13 5.17 99.02 3.78C96.95 2.4 94.34 1.7 91.2 1.7C89.45 1.7 87.78 2.06 86.2 2.77C84.61 3.44 83.22 4.42 82.02 5.68C80.85 6.91 79.91 8.41 79.2 10.17C78.49 11.92 78.13 13.87 78.13 15.99C78.13 18.12 78.49 20.06 79.2 21.82C79.91 23.58 80.85 25.09 82.02 26.36C83.22 27.59 84.61 28.54 86.2 29.22C87.78 29.9 89.45 30.24 91.2 30.24C94.31 30.24 96.84 29.78 98.78 28.85C100.76 27.9 102.42 26.45 103.78 24.51L104.08 24.6L103.98 27.56C103.23 28.3 102.38 28.96 101.4 29.55C100.43 30.1 99.38 30.58 98.25 30.98C97.14 31.35 95.99 31.63 94.8 31.81C93.6 32.03 92.4 32.14 91.2 32.14C88.71 32.14 86.33 31.75 84.06 30.98C81.79 30.21 79.8 29.13 78.08 27.74C76.37 26.32 75.01 24.63 74 22.66C73 20.65 72.5 18.43 72.5 15.99C72.5 13.56 73 11.35 74 9.38C75.01 7.38 76.37 5.66 78.08 4.25C79.8 2.83 81.79 1.75 84.06 1.01C86.33 0.24 88.71 -0.15 91.2 -0.15C92.4 -0.15 93.6 -0.06 94.8 0.13C95.99 0.31 97.14 0.61 98.25 1.01C99.38 1.38 100.43 1.86 101.4 2.44C102.38 3 103.23 3.65 103.98 4.39L104.17 9.29ZM155.43 31.35C155.27 31.32 155 31.29 154.61 31.26C154.25 31.26 153.86 31.24 153.44 31.22C153.02 31.22 152.62 31.2 152.23 31.17L149.31 31.17C148.92 31.2 148.53 31.23 148.14 31.27C147.79 31.29 147.51 31.33 147.32 31.36L147.28 31.17C147.6 31.02 147.92 30.82 148.25 30.57C148.57 30.33 148.75 29.86 148.78 29.18C148.81 28.44 148.83 27.67 148.83 26.87C148.86 26.07 148.87 25.16 148.87 24.14L148.87 20.67L148.87 16L148.87 11.33L148.87 7.82C148.87 6.8 148.86 5.9 148.83 5.13C148.83 4.33 148.81 3.56 148.78 2.82C148.75 2.14 148.57 1.68 148.25 1.43C147.92 1.15 147.6 0.94 147.28 0.79L147.32 0.6C147.51 0.66 147.79 0.71 148.14 0.74C148.53 0.74 148.92 0.75 149.31 0.78C149.73 0.81 150.14 0.82 150.53 0.82L152.23 0.82C152.62 0.79 153.02 0.78 153.44 0.78C153.86 0.75 154.25 0.72 154.61 0.69C155 0.66 155.27 0.63 155.43 0.6L155.48 0.78C155.12 0.94 154.78 1.15 154.46 1.43C154.17 1.68 154 2.14 153.97 2.82C153.94 3.56 153.91 4.33 153.87 5.13L153.87 26.87C153.9 27.67 153.94 28.44 153.97 29.18C154 29.86 154.16 30.32 154.46 30.57C154.78 30.81 155.12 31.02 155.48 31.17L155.43 31.35Z" fill="#FFFFFF" fill-opacity="1.000000" fill-rule="nonzero"/>
</svg>
