<svg width="28.000000" height="28.000000" viewBox="0 0 28 28" fill="none" xmlns="http://www.w3.org/2000/svg" xmlns:xlink="http://www.w3.org/1999/xlink">
	<desc>
			Created with Pixso.
	</desc>
	<defs/>
	<circle id="BG" cx="14.000000" cy="14.000000" r="14.000000" fill="#FFFFFF" fill-opacity="1.000000"/>
	<circle id="BG" cx="14.000000" cy="14.000000" r="13.500000" stroke="#000000" stroke-opacity="0.200000" stroke-width="1.000000"/>
	<path id="Vector" d="M14 8.44C15.8 8.44 16.02 8.45 16.73 8.48C17.16 8.49 17.59 8.57 17.99 8.71C18.28 8.83 18.55 9 18.77 9.22C18.99 9.44 19.16 9.71 19.28 10C19.43 10.4 19.51 10.83 19.51 11.26C19.54 11.97 19.55 12.19 19.55 14C19.55 15.8 19.54 16.02 19.51 16.73C19.51 17.16 19.43 17.59 19.28 17.99C19.16 18.28 18.99 18.55 18.77 18.77C18.55 18.99 18.28 19.16 17.99 19.28C17.59 19.43 17.16 19.51 16.73 19.51C16.02 19.54 15.8 19.55 14 19.55C12.19 19.55 11.97 19.54 11.26 19.51C10.83 19.51 10.4 19.43 10 19.28C9.71 19.16 9.44 18.99 9.22 18.77C9 18.55 8.83 18.28 8.71 17.99C8.57 17.59 8.49 17.16 8.48 16.73C8.45 16.02 8.44 15.8 8.44 14C8.44 12.19 8.45 11.97 8.48 11.26C8.49 10.83 8.57 10.4 8.71 10C8.83 9.71 9 9.44 9.22 9.22C9.44 9 9.71 8.83 10 8.71C10.4 8.57 10.83 8.49 11.26 8.48C11.97 8.45 12.19 8.44 14 8.44ZM14 7.22C12.16 7.22 11.93 7.23 11.2 7.26C10.64 7.27 10.08 7.38 9.56 7.58C9.11 7.75 8.7 8.01 8.36 8.36C8.01 8.7 7.75 9.11 7.58 9.56C7.38 10.08 7.27 10.64 7.26 11.2C7.23 11.93 7.22 12.16 7.22 14C7.22 15.83 7.23 16.07 7.26 16.79C7.27 17.35 7.38 17.91 7.58 18.43C7.75 18.89 8.01 19.3 8.36 19.63C8.7 19.98 9.11 20.25 9.56 20.41C10.09 20.61 10.64 20.72 11.2 20.73C11.93 20.76 12.16 20.77 14 20.77C15.84 20.77 16.07 20.76 16.79 20.73C17.35 20.72 17.91 20.61 18.43 20.41C18.88 20.24 19.29 19.97 19.63 19.63C19.97 19.29 20.24 18.88 20.42 18.43C20.61 17.91 20.72 17.35 20.73 16.79C20.76 16.07 20.77 15.83 20.77 14C20.77 12.16 20.76 11.93 20.73 11.2C20.72 10.64 20.61 10.08 20.41 9.56C20.24 9.11 19.98 8.7 19.63 8.36C19.29 8.01 18.89 7.75 18.43 7.58C17.91 7.38 17.35 7.27 16.79 7.26C16.07 7.23 15.83 7.22 14 7.22Z" fill="#000000" fill-opacity="1.000000" fill-rule="nonzero"/>
	<path id="Vector" d="M14 10.52C13.31 10.52 12.64 10.72 12.06 11.1C11.49 11.49 11.05 12.03 10.78 12.67C10.52 13.3 10.45 14 10.59 14.68C10.72 15.35 11.05 15.97 11.54 16.46C12.02 16.94 12.64 17.27 13.32 17.41C13.99 17.54 14.69 17.47 15.33 17.21C15.96 16.95 16.51 16.5 16.89 15.93C17.27 15.36 17.48 14.68 17.48 14C17.48 13.07 17.11 12.19 16.46 11.54C15.8 10.89 14.92 10.52 14 10.52ZM14 16.26C13.55 16.26 13.11 16.12 12.74 15.87C12.37 15.63 12.08 15.27 11.91 14.86C11.74 14.45 11.7 13.99 11.78 13.56C11.87 13.12 12.08 12.72 12.4 12.4C12.72 12.08 13.12 11.87 13.56 11.78C13.99 11.7 14.45 11.74 14.86 11.91C15.27 12.08 15.63 12.37 15.87 12.74C16.12 13.11 16.26 13.55 16.26 14C16.26 14.6 16.02 15.17 15.59 15.59C15.17 16.02 14.6 16.26 14 16.26Z" fill="#000000" fill-opacity="1.000000" fill-rule="nonzero"/>
	<path id="Vector" d="M18.43 10.38C18.43 10.83 18.06 11.19 17.61 11.19C17.16 11.19 16.8 10.83 16.8 10.38C16.8 9.93 17.16 9.57 17.61 9.57C18.06 9.57 18.43 9.93 18.43 10.38Z" fill="#000000" fill-opacity="1.000000" fill-rule="evenodd"/>
</svg>
