<svg width="65.000000" height="48.000000" viewBox="0 0 65 48" fill="none" xmlns="http://www.w3.org/2000/svg" xmlns:xlink="http://www.w3.org/1999/xlink">
	<desc>
			Created with Pixso.
	</desc>
	<defs>
		<filter id="filter_20_322_dd" x="-0.574097" y="-0.706543" width="64.990967" height="48.407227" filterUnits="userSpaceOnUse" color-interpolation-filters="sRGB">
			<feFlood flood-opacity="0" result="BackgroundImageFix"/>
			<feColorMatrix in="SourceAlpha" type="matrix" values="0 0 0 0 0 0 0 0 0 0 0 0 0 0 0 0 0 0 127 0" result="hardAlpha"/>
			<feOffset dx="0" dy="0.448214"/>
			<feGaussianBlur stdDeviation="1.49405"/>
			<feComposite in2="hardAlpha" operator="out" k2="-1" k3="1"/>
			<feColorMatrix type="matrix" values="0 0 0 0 0.71765 0 0 0 0 0.71765 0 0 0 0 0.71765 0 0 0 0.078 0"/>
			<feBlend mode="normal" in2="BackgroundImageFix" result="effect_dropShadow_1"/>
			<feColorMatrix in="SourceAlpha" type="matrix" values="0 0 0 0 0 0 0 0 0 0 0 0 0 0 0 0 0 0 127 0" result="hardAlpha"/>
			<feOffset dx="0" dy="4.48214"/>
			<feGaussianBlur stdDeviation="2.9881"/>
			<feComposite in2="hardAlpha" operator="out" k2="-1" k3="1"/>
			<feColorMatrix type="matrix" values="0 0 0 0 0.71765 0 0 0 0 0.71765 0 0 0 0 0.71765 0 0 0 0.078 0"/>
			<feBlend mode="normal" in2="effect_dropShadow_1" result="effect_dropShadow_2"/>
			<feBlend mode="normal" in="SourceGraphic" in2="effect_dropShadow_2" result="shape"/>
		</filter>
	</defs>
	<g filter="url(#filter_20_322_dd)">
		<rect id="Badge" rx="5.490625" width="46.838390" height="30.254465" transform="translate(8.502204 3.887946)" fill="#FFFFFF" fill-opacity="1.000000"/>
		<path id="Mastercard" d="M35.26 12.84L28.4 12.84L28.4 25.18L35.26 25.18L35.26 12.84Z" fill="#FF5F00" fill-opacity="1.000000" fill-rule="nonzero"/>
		<path id="Mastercard" d="M28.84 19.01C28.84 17.82 29.11 16.65 29.62 15.58C30.14 14.51 30.9 13.58 31.83 12.84C30.68 11.93 29.29 11.37 27.82 11.21C26.36 11.05 24.88 11.31 23.56 11.96C22.23 12.6 21.12 13.6 20.34 14.85C19.56 16.1 19.14 17.54 19.14 19.01C19.14 20.48 19.56 21.92 20.34 23.17C21.12 24.42 22.23 25.42 23.56 26.07C24.88 26.71 26.36 26.97 27.82 26.81C29.29 26.65 30.68 26.09 31.83 25.18C30.9 24.44 30.14 23.51 29.62 22.44C29.11 21.37 28.84 20.2 28.84 19.01Z" fill="#EB001B" fill-opacity="1.000000" fill-rule="nonzero"/>
		<path id="Mastercard" d="M44.52 19.01C44.52 20.48 44.11 21.92 43.33 23.17C42.55 24.42 41.43 25.42 40.11 26.07C38.78 26.71 37.31 26.97 35.84 26.81C34.38 26.65 32.99 26.09 31.83 25.18C32.77 24.44 33.52 23.51 34.04 22.44C34.56 21.37 34.83 20.2 34.83 19.01C34.83 17.82 34.56 16.65 34.04 15.58C33.52 14.51 32.77 13.58 31.83 12.84C32.99 11.93 34.38 11.37 35.84 11.21C37.31 11.05 38.78 11.31 40.11 11.96C41.43 12.6 42.55 13.6 43.33 14.85C44.11 16.1 44.52 17.54 44.52 19.01Z" fill="#F79E1B" fill-opacity="1.000000" fill-rule="nonzero"/>
		<path id="Mastercard" d="M43.78 23.87L43.78 23.62L43.88 23.62L43.88 23.57L43.62 23.57L43.62 23.62L43.72 23.62L43.72 23.87L43.78 23.87ZM44.28 23.87L44.28 23.57L44.2 23.57L44.11 23.78L44.02 23.57L43.94 23.57L43.94 23.87L43.99 23.87L43.99 23.64L44.08 23.84L44.14 23.84L44.22 23.64L44.22 23.87L44.28 23.87Z" fill="#F79E1B" fill-opacity="1.000000" fill-rule="nonzero"/>
		<rect id="Badge" rx="5.490625" width="46.838390" height="30.254465" transform="translate(8.502204 3.887946)" stroke="#D6DCE5" stroke-opacity="1.000000" stroke-width="0.224107"/>
	</g>
</svg>
