<svg width="65.000000" height="48.000000" viewBox="0 0 65 48" fill="none" xmlns="http://www.w3.org/2000/svg" xmlns:xlink="http://www.w3.org/1999/xlink">
	<desc>
			Created with Pixso.
	</desc>
	<defs>
		<filter id="filter_20_324_dd" x="-0.959839" y="-0.706543" width="64.990967" height="48.407227" filterUnits="userSpaceOnUse" color-interpolation-filters="sRGB">
			<feFlood flood-opacity="0" result="BackgroundImageFix"/>
			<feColorMatrix in="SourceAlpha" type="matrix" values="0 0 0 0 0 0 0 0 0 0 0 0 0 0 0 0 0 0 127 0" result="hardAlpha"/>
			<feOffset dx="0" dy="0.448214"/>
			<feGaussianBlur stdDeviation="1.49405"/>
			<feComposite in2="hardAlpha" operator="out" k2="-1" k3="1"/>
			<feColorMatrix type="matrix" values="0 0 0 0 0.71765 0 0 0 0 0.71765 0 0 0 0 0.71765 0 0 0 0.078 0"/>
			<feBlend mode="normal" in2="BackgroundImageFix" result="effect_dropShadow_1"/>
			<feColorMatrix in="SourceAlpha" type="matrix" values="0 0 0 0 0 0 0 0 0 0 0 0 0 0 0 0 0 0 127 0" result="hardAlpha"/>
			<feOffset dx="0" dy="4.48214"/>
			<feGaussianBlur stdDeviation="2.9881"/>
			<feComposite in2="hardAlpha" operator="out" k2="-1" k3="1"/>
			<feColorMatrix type="matrix" values="0 0 0 0 0.71765 0 0 0 0 0.71765 0 0 0 0 0.71765 0 0 0 0.078 0"/>
			<feBlend mode="normal" in2="effect_dropShadow_1" result="effect_dropShadow_2"/>
			<feBlend mode="normal" in="SourceGraphic" in2="effect_dropShadow_2" result="shape"/>
		</filter>
	</defs>
	<g filter="url(#filter_20_324_dd)">
		<rect id="Badge" rx="5.490625" width="46.838390" height="30.254465" transform="translate(8.116462 3.887946)" fill="#FFFFFF" fill-opacity="1.000000"/>
		<path id="Paypal" d="M18.42 14.64L15.73 14.64C15.55 14.64 15.39 14.77 15.36 14.96L14.28 21.85C14.26 21.98 14.36 22.11 14.5 22.11L15.78 22.11C15.97 22.11 16.12 21.97 16.15 21.79L16.44 19.93C16.47 19.75 16.63 19.62 16.81 19.62L17.66 19.62C19.43 19.62 20.46 18.76 20.72 17.06C20.84 16.32 20.73 15.74 20.38 15.33C20 14.88 19.32 14.64 18.42 14.64ZM18.73 17.16C18.58 18.12 17.85 18.12 17.13 18.12L16.73 18.12L17.01 16.32C17.03 16.21 17.12 16.13 17.23 16.13L17.42 16.13C17.91 16.13 18.36 16.13 18.6 16.41C18.74 16.57 18.78 16.82 18.73 17.16ZM26.45 17.13L25.17 17.13C25.06 17.13 24.96 17.21 24.95 17.32L24.89 17.68L24.8 17.55C24.52 17.14 23.9 17.01 23.28 17.01C21.86 17.01 20.64 18.08 20.41 19.59C20.28 20.35 20.46 21.07 20.89 21.57C21.28 22.03 21.84 22.23 22.51 22.23C23.65 22.23 24.29 21.49 24.29 21.49L24.23 21.85C24.21 21.98 24.31 22.11 24.45 22.11L25.61 22.11C25.79 22.11 25.95 21.97 25.98 21.79L26.67 17.39C26.7 17.25 26.59 17.13 26.45 17.13ZM24.66 19.63C24.54 20.37 23.95 20.86 23.21 20.86C22.83 20.86 22.54 20.74 22.34 20.51C22.15 20.29 22.08 19.97 22.14 19.61C22.26 18.88 22.85 18.37 23.58 18.37C23.95 18.37 24.25 18.49 24.44 18.72C24.64 18.95 24.72 19.28 24.66 19.63ZM32.02 17.13L33.31 17.13C33.49 17.13 33.6 17.33 33.49 17.48L29.19 23.69C29.12 23.79 29.01 23.85 28.88 23.85L27.59 23.85C27.41 23.85 27.3 23.64 27.41 23.49L28.75 21.6L27.32 17.42C27.28 17.28 27.38 17.13 27.54 17.13L28.81 17.13C28.97 17.13 29.12 17.24 29.17 17.39L29.92 19.92L31.71 17.29C31.78 17.19 31.89 17.13 32.02 17.13Z" fill="#253B80" fill-opacity="1.000000" fill-rule="evenodd"/>
		<path id="Paypal" d="M46.04 21.85L47.14 14.83C47.16 14.72 47.25 14.64 47.36 14.64L48.6 14.64C48.74 14.64 48.85 14.76 48.82 14.9L47.74 21.79C47.71 21.97 47.55 22.1 47.37 22.1L46.26 22.1C46.12 22.1 46.02 21.98 46.04 21.85ZM37.59 14.64L34.9 14.64C34.72 14.64 34.56 14.77 34.53 14.96L33.45 21.85C33.43 21.98 33.53 22.1 33.67 22.1L35.05 22.1C35.18 22.1 35.29 22.01 35.31 21.88L35.61 19.93C35.64 19.75 35.8 19.62 35.98 19.62L36.83 19.62C38.6 19.62 39.62 18.76 39.89 17.06C40.01 16.32 39.9 15.74 39.55 15.33C39.17 14.88 38.49 14.64 37.59 14.64ZM37.9 17.16C37.75 18.12 37.02 18.12 36.3 18.12L35.9 18.12L36.18 16.32C36.2 16.21 36.29 16.13 36.41 16.13L36.59 16.13C37.08 16.13 37.53 16.13 37.77 16.41C37.91 16.57 37.95 16.82 37.9 17.16ZM45.62 17.13L44.34 17.13C44.23 17.13 44.13 17.21 44.12 17.32L44.06 17.68L43.97 17.54C43.69 17.14 43.07 17.01 42.45 17.01C41.03 17.01 39.81 18.08 39.58 19.59C39.45 20.35 39.63 21.07 40.06 21.57C40.45 22.03 41.01 22.22 41.68 22.22C42.82 22.22 43.46 21.49 43.46 21.49L43.4 21.85C43.38 21.98 43.48 22.1 43.62 22.1L44.78 22.1C44.96 22.1 45.12 21.97 45.15 21.79L45.85 17.38C45.87 17.25 45.76 17.13 45.62 17.13ZM43.83 19.63C43.71 20.37 43.12 20.86 42.38 20.86C42 20.86 41.71 20.74 41.51 20.51C41.32 20.29 41.25 19.97 41.31 19.61C41.43 18.88 42.02 18.37 42.75 18.37C43.12 18.37 43.42 18.49 43.61 18.72C43.81 18.95 43.89 19.27 43.83 19.63Z" fill="#179BD7" fill-opacity="1.000000" fill-rule="evenodd"/>
		<rect id="Badge" rx="5.490625" width="46.838390" height="30.254465" transform="translate(8.116462 3.887946)" stroke="#D6DCE5" stroke-opacity="1.000000" stroke-width="0.224107"/>
	</g>
</svg>
