<svg width="19.000000" height="19.000000" viewBox="0 0 19 19" fill="none" xmlns="http://www.w3.org/2000/svg" xmlns:xlink="http://www.w3.org/1999/xlink">
	<desc>
			Created with Pixso.
	</desc>
	<defs/>
	<path id="Vector" d="M18.37 9C18.37 9.29 18.25 9.58 18.04 9.79C17.83 10 17.54 10.12 17.25 10.12L10.12 10.12L10.12 17.25C10.12 17.54 10 17.83 9.79 18.04C9.58 18.25 9.29 18.37 9 18.37C8.7 18.37 8.41 18.25 8.2 18.04C7.99 17.83 7.87 17.54 7.87 17.25L7.87 10.12L0.75 10.12C0.45 10.12 0.16 10 -0.05 9.79C-0.26 9.58 -0.38 9.29 -0.38 9C-0.38 8.7 -0.26 8.41 -0.05 8.2C0.16 7.99 0.45 7.87 0.75 7.87L7.87 7.87L7.87 0.75C7.87 0.45 7.99 0.16 8.2 -0.05C8.41 -0.26 8.7 -0.38 9 -0.38C9.29 -0.38 9.58 -0.26 9.79 -0.05C10 0.16 10.12 0.45 10.12 0.75L10.12 7.87L17.25 7.87C17.54 7.87 17.83 7.99 18.04 8.2C18.25 8.41 18.37 8.7 18.37 9Z" fill="#000000" fill-opacity="1.000000" fill-rule="nonzero"/>
</svg>
