<svg width="195.000000" height="33.000000" viewBox="0 0 195 33" fill="none" xmlns="http://www.w3.org/2000/svg" xmlns:xlink="http://www.w3.org/1999/xlink">
	<desc>
			Created with Pixso.
	</desc>
	<defs/>
	<path id="Vector" d="M0.48 0.9L3.41 4.2L3.41 28.41L1.24 31.57L14.55 31.59L12.15 28.68L11.9 19.96L24.73 20.03C28.62 18.74 32.62 15.98 32.81 10.39C32.75 4.99 29.45 1.52 25.61 0.83L0.48 0.9ZM11.42 2.44L11.42 17.99L21.27 18.06C23.51 16.26 25.21 14.87 25.14 10.54C25.11 7 24.36 3.92 21.06 2.45L11.42 2.44ZM38.97 0.72L41.9 4.03L41.9 28.23L39.73 31.4L53.04 31.42L50.64 28.5L50.39 19.79L50.44 19.79L64.19 31.52L75.6 31.42L65.19 22.41L56.5 22.41L53.43 19.8L63.22 19.86C67.11 18.56 71.11 15.8 71.3 10.22C71.24 4.81 67.94 1.34 64.11 0.65L38.97 0.72ZM49.91 2.27L49.91 17.82L59.76 17.89C62 16.08 63.7 14.7 63.63 10.36C63.6 6.82 62.85 3.74 59.56 2.27L49.91 2.27ZM86.59 0.69L98.07 0.69L113 28.41C113.65 30.55 115.58 30.28 116.88 31.22L102.41 31.22L104.59 30.54L104.45 28.48L100.71 22.5L88.02 22.57L85.3 28.34C85.21 28.99 84.51 29.49 85.03 30.31L86.05 31.29L79.8 31.15L82.52 30.31L92.77 8.71L92.77 7.23L88.44 1.45L86.59 0.69ZM88.82 20.59L94.09 10.61L99.58 20.54L88.82 20.59ZM164.19 0.75L175.67 0.75L190.61 28.47C191.25 30.61 193.19 30.34 194.48 31.28L180.01 31.28L182.19 30.6L182.05 28.54L178.32 22.56L165.62 22.63L162.9 28.4C162.81 29.05 162.11 29.55 162.63 30.37L163.65 31.35L157.4 31.21L160.12 30.37L170.37 8.77L170.37 7.29L166.04 1.51L164.19 0.75ZM166.42 20.65L171.69 10.67L177.19 20.6L166.42 20.65ZM120.84 0.4L141.29 0.51C147.87 2.05 152.06 6.07 153.36 13.09L153.3 18.56C152.1 24.81 148.17 29.13 141.23 31.31L120.74 31.37L120.73 30.71C123.85 30.47 124.1 30.11 124.11 28.26L124.11 3.33C124.07 1.96 123.8 1.11 120.79 1.02L120.84 0.4ZM132.46 2.53L132.45 29.51C135.14 29.52 137.48 29.77 138.8 29.1C141.8 27.73 143.19 25.63 143.31 23.65L143.24 7.73C143.24 5.18 140.48 3.38 138.88 2.91C137.74 2.49 135.46 2.47 132.46 2.53Z" fill="#FFFFFF" fill-opacity="1.000000" fill-rule="evenodd"/>
	<path id="Vector" d="M3.41 4.2L3.41 28.41L1.24 31.57L14.55 31.59L12.15 28.68L11.9 19.96L24.73 20.03C28.62 18.74 32.62 15.98 32.81 10.39C32.75 4.99 29.45 1.52 25.61 0.83L0.48 0.9L3.41 4.2ZM11.42 17.99L21.27 18.06C23.51 16.26 25.21 14.87 25.14 10.54C25.11 7 24.36 3.92 21.06 2.45L11.42 2.44L11.42 17.99ZM41.9 4.03L41.9 28.23L39.73 31.4L53.04 31.42L50.64 28.5L50.39 19.79L50.44 19.79L64.19 31.52L75.6 31.42L65.19 22.41L56.5 22.41L53.43 19.8L63.22 19.86C67.11 18.56 71.11 15.8 71.3 10.22C71.24 4.81 67.94 1.34 64.11 0.65L38.97 0.72L41.9 4.03ZM49.91 17.82L59.76 17.89C62 16.08 63.7 14.7 63.63 10.36C63.6 6.82 62.85 3.74 59.56 2.27L49.91 2.27L49.91 17.82ZM98.07 0.69L113 28.41C113.65 30.55 115.58 30.28 116.88 31.22L102.41 31.22L104.59 30.54L104.45 28.48L100.71 22.5L88.02 22.57L85.3 28.34C85.21 28.99 84.51 29.49 85.03 30.31L86.05 31.29L79.8 31.15L82.52 30.31L92.77 8.71L92.77 7.23L88.44 1.45L86.59 0.69L98.07 0.69ZM94.09 10.61L99.58 20.54L88.82 20.59L94.09 10.61ZM175.67 0.75L190.61 28.47C191.25 30.61 193.19 30.34 194.48 31.28L180.01 31.28L182.19 30.6L182.05 28.54L178.32 22.56L165.62 22.63L162.9 28.4C162.81 29.05 162.11 29.55 162.63 30.37L163.65 31.35L157.4 31.21L160.12 30.37L170.37 8.77L170.37 7.29L166.04 1.51L164.19 0.75L175.67 0.75ZM171.69 10.67L177.19 20.6L166.42 20.65L171.69 10.67ZM141.29 0.51C147.87 2.05 152.06 6.07 153.36 13.09L153.3 18.56C152.1 24.81 148.17 29.13 141.23 31.31L120.74 31.37L120.73 30.71C123.85 30.47 124.1 30.11 124.11 28.26L124.11 3.33C124.07 1.96 123.8 1.11 120.79 1.02L120.84 0.4L141.29 0.51ZM132.45 29.51C135.14 29.52 137.48 29.77 138.8 29.1C141.8 27.73 143.19 25.63 143.31 23.65L143.24 7.73C143.24 5.18 140.48 3.38 138.88 2.91C137.74 2.49 135.46 2.47 132.46 2.53L132.45 29.51Z" stroke="#FFFFFF" stroke-opacity="1.000000" stroke-width="1.024185"/>
</svg>
