<svg width="21.000000" height="21.000000" viewBox="0 0 21 21" fill="none" xmlns="http://www.w3.org/2000/svg" xmlns:xlink="http://www.w3.org/1999/xlink">
	<desc>
			Created with Pixso.
	</desc>
	<defs/>
	<path id="Vector" d="M20.07 9.48L10.76 0.17C10.59 -0.01 10.38 -0.14 10.15 -0.24C9.93 -0.33 9.68 -0.38 9.43 -0.38L0.75 -0.38C0.45 -0.38 0.16 -0.26 -0.05 -0.05C-0.26 0.16 -0.38 0.45 -0.38 0.75L-0.38 9.43C-0.38 9.68 -0.33 9.93 -0.24 10.15C-0.14 10.38 -0.01 10.59 0.17 10.76L9.48 20.07C9.83 20.42 10.31 20.62 10.81 20.62C11.3 20.62 11.78 20.42 12.13 20.07L20.07 12.13C20.42 11.78 20.62 11.3 20.62 10.81C20.62 10.31 20.42 9.83 20.07 9.48ZM10.81 18.22L1.87 9.28L1.87 1.87L9.28 1.87L18.21 10.81L10.81 18.22ZM6.37 4.87C6.37 5.17 6.28 5.46 6.12 5.7C5.95 5.95 5.72 6.14 5.44 6.26C5.17 6.37 4.87 6.4 4.58 6.34C4.29 6.28 4.02 6.14 3.81 5.93C3.6 5.72 3.46 5.45 3.4 5.16C3.34 4.87 3.37 4.57 3.48 4.3C3.6 4.02 3.79 3.79 4.04 3.62C4.28 3.46 4.57 3.37 4.87 3.37C5.27 3.37 5.65 3.53 5.93 3.81C6.21 4.09 6.37 4.47 6.37 4.87Z" fill="#000000" fill-opacity="0.400000" fill-rule="nonzero"/>
</svg>
