<svg width="21.000000" height="19.000000" viewBox="0 0 21 19" fill="none" xmlns="http://www.w3.org/2000/svg" xmlns:xlink="http://www.w3.org/1999/xlink">
	<desc>
			Created with Pixso.
	</desc>
	<defs/>
	<path id="Vector" d="M11.12 8.62L11.12 17.25C11.12 17.54 11 17.83 10.79 18.04C10.58 18.25 10.29 18.37 10 18.37C9.7 18.37 9.41 18.25 9.2 18.04C8.99 17.83 8.87 17.54 8.87 17.25L8.87 8.62C8.87 8.32 8.99 8.04 9.2 7.82C9.41 7.61 9.7 7.5 10 7.5C10.29 7.5 10.58 7.61 10.79 7.82C11 8.04 11.12 8.32 11.12 8.62ZM16.75 15C16.45 15 16.16 15.11 15.95 15.32C15.74 15.54 15.62 15.82 15.62 16.12L15.62 17.25C15.62 17.54 15.74 17.83 15.95 18.04C16.16 18.25 16.45 18.37 16.75 18.37C17.04 18.37 17.33 18.25 17.54 18.04C17.75 17.83 17.87 17.54 17.87 17.25L17.87 16.12C17.87 15.82 17.75 15.54 17.54 15.32C17.33 15.11 17.04 15 16.75 15ZM19 11.25L17.87 11.25L17.87 0.75C17.87 0.45 17.75 0.16 17.54 -0.05C17.33 -0.26 17.04 -0.38 16.75 -0.38C16.45 -0.38 16.16 -0.26 15.95 -0.05C15.74 0.16 15.62 0.45 15.62 0.75L15.62 11.25L14.5 11.25C14.2 11.25 13.91 11.36 13.7 11.57C13.49 11.79 13.37 12.07 13.37 12.37C13.37 12.67 13.49 12.95 13.7 13.17C13.91 13.38 14.2 13.5 14.5 13.5L19 13.5C19.29 13.5 19.58 13.38 19.79 13.17C20 12.95 20.12 12.67 20.12 12.37C20.12 12.07 20 11.79 19.79 11.57C19.58 11.36 19.29 11.25 19 11.25ZM3.25 12C2.95 12 2.66 12.11 2.45 12.32C2.24 12.54 2.12 12.82 2.12 13.12L2.12 17.25C2.12 17.54 2.24 17.83 2.45 18.04C2.66 18.25 2.95 18.37 3.25 18.37C3.54 18.37 3.83 18.25 4.04 18.04C4.25 17.83 4.37 17.54 4.37 17.25L4.37 13.12C4.37 12.82 4.25 12.54 4.04 12.32C3.83 12.11 3.54 12 3.25 12ZM5.5 8.25L4.37 8.25L4.37 0.75C4.37 0.45 4.25 0.16 4.04 -0.05C3.83 -0.26 3.54 -0.38 3.25 -0.38C2.95 -0.38 2.66 -0.26 2.45 -0.05C2.24 0.16 2.12 0.45 2.12 0.75L2.12 8.25L1 8.25C0.7 8.25 0.41 8.36 0.2 8.57C-0.01 8.79 -0.13 9.07 -0.13 9.37C-0.13 9.67 -0.01 9.95 0.2 10.17C0.41 10.38 0.7 10.5 1 10.5L5.5 10.5C5.79 10.5 6.08 10.38 6.29 10.17C6.5 9.95 6.62 9.67 6.62 9.37C6.62 9.07 6.5 8.79 6.29 8.57C6.08 8.36 5.79 8.25 5.5 8.25ZM12.25 3.75L11.12 3.75L11.12 0.75C11.12 0.45 11 0.16 10.79 -0.05C10.58 -0.26 10.29 -0.38 10 -0.38C9.7 -0.38 9.41 -0.26 9.2 -0.05C8.99 0.16 8.87 0.45 8.87 0.75L8.87 3.75L7.75 3.75C7.45 3.75 7.16 3.86 6.95 4.07C6.74 4.29 6.62 4.57 6.62 4.87C6.62 5.17 6.74 5.45 6.95 5.67C7.16 5.88 7.45 6 7.75 6L12.25 6C12.54 6 12.83 5.88 13.04 5.67C13.25 5.45 13.37 5.17 13.37 4.87C13.37 4.57 13.25 4.29 13.04 4.07C12.83 3.86 12.54 3.75 12.25 3.75Z" fill="#000000" fill-opacity="1.000000" fill-rule="nonzero"/>
</svg>
