<svg width="21.000000" height="5.000000" viewBox="0 0 21 5" fill="none" xmlns="http://www.w3.org/2000/svg" xmlns:xlink="http://www.w3.org/1999/xlink">
	<desc>
			Created with Pixso.
	</desc>
	<defs/>
	<path id="Vector" d="M12.62 2C12.62 2.51 12.47 3.02 12.18 3.45C11.89 3.89 11.48 4.22 11 4.42C10.52 4.62 9.99 4.67 9.48 4.57C8.97 4.47 8.51 4.22 8.14 3.85C7.77 3.48 7.52 3.02 7.42 2.51C7.32 2 7.37 1.47 7.57 0.99C7.77 0.51 8.1 0.1 8.54 -0.19C8.97 -0.48 9.48 -0.63 10 -0.63C10.69 -0.63 11.36 -0.35 11.85 0.14C12.34 0.63 12.62 1.3 12.62 2ZM2.5 -0.63C1.98 -0.63 1.47 -0.48 1.04 -0.19C0.6 0.1 0.27 0.51 0.07 0.99C-0.13 1.47 -0.18 2 -0.08 2.51C0.02 3.02 0.27 3.48 0.64 3.85C1.01 4.22 1.47 4.47 1.98 4.57C2.49 4.67 3.02 4.62 3.5 4.42C3.98 4.22 4.39 3.89 4.68 3.45C4.97 3.02 5.12 2.51 5.12 2C5.12 1.3 4.84 0.63 4.35 0.14C3.86 -0.35 3.19 -0.63 2.5 -0.63ZM17.5 -0.63C16.98 -0.63 16.47 -0.48 16.04 -0.19C15.6 0.1 15.27 0.51 15.07 0.99C14.87 1.47 14.82 2 14.92 2.51C15.02 3.02 15.27 3.48 15.64 3.85C16.01 4.22 16.47 4.47 16.98 4.57C17.49 4.67 18.02 4.62 18.5 4.42C18.98 4.22 19.39 3.89 19.68 3.45C19.97 3.02 20.12 2.51 20.12 2C20.12 1.65 20.05 1.31 19.92 0.99C19.79 0.67 19.59 0.38 19.35 0.14C19.11 -0.1 18.82 -0.3 18.5 -0.43C18.18 -0.56 17.84 -0.63 17.5 -0.63Z" fill="#000000" fill-opacity="0.400000" fill-rule="nonzero"/>
</svg>
