<svg width="28.000000" height="28.000000" viewBox="0 0 28 28" fill="none" xmlns="http://www.w3.org/2000/svg" xmlns:xlink="http://www.w3.org/1999/xlink">
	<desc>
			Created with Pixso.
	</desc>
	<defs/>
	<circle id="BG" cx="14.000000" cy="14.000000" r="14.000000" fill="#FFFFFF" fill-opacity="1.000000"/>
	<circle id="BG" cx="14.000000" cy="14.000000" r="13.500000" stroke="#000000" stroke-opacity="0.200000" stroke-width="1.000000"/>
	<path id="Vector" d="M20.2 10.98C19.78 11.16 19.34 11.28 18.88 11.35C19.34 11.07 19.71 10.63 19.88 10.09C19.43 10.35 18.95 10.54 18.41 10.65C17.99 10.21 17.39 9.93 16.73 9.93C15.48 9.93 14.45 10.96 14.45 12.21C14.45 12.4 14.48 12.56 14.52 12.72C12.64 12.63 10.94 11.72 9.8 10.33C9.61 10.68 9.49 11.05 9.49 11.47C9.49 12.26 9.89 12.96 10.52 13.38C10.15 13.35 9.8 13.26 9.47 13.1L9.47 13.12C9.47 14.24 10.26 15.17 11.31 15.38C11.12 15.42 10.91 15.45 10.7 15.45C10.56 15.45 10.4 15.42 10.26 15.4C10.56 16.31 11.4 16.98 12.4 16.98C11.61 17.59 10.63 17.96 9.56 17.96C9.38 17.96 9.19 17.96 9.03 17.94C10.05 18.59 11.24 18.96 12.54 18.96C16.76 18.96 19.06 15.47 19.06 12.44C19.06 12.35 19.06 12.24 19.06 12.14C19.5 11.84 19.9 11.44 20.2 10.98Z" fill="#000000" fill-opacity="1.000000" fill-rule="nonzero"/>
</svg>
