<svg width="23.000000" height="21.000000" viewBox="0 0 23 21" fill="none" xmlns="http://www.w3.org/2000/svg" xmlns:xlink="http://www.w3.org/1999/xlink">
	<desc>
			Created with Pixso.
	</desc>
	<defs/>
	<path id="Vector" d="M9.37 18.25C9.37 18.62 9.26 18.98 9.05 19.29C8.85 19.6 8.56 19.84 8.21 19.98C7.87 20.12 7.49 20.16 7.13 20.08C6.77 20.01 6.43 19.83 6.17 19.57C5.91 19.31 5.73 18.97 5.66 18.61C5.58 18.25 5.62 17.87 5.76 17.53C5.9 17.18 6.14 16.89 6.45 16.69C6.76 16.48 7.12 16.37 7.5 16.37C7.99 16.37 8.47 16.57 8.82 16.92C9.17 17.27 9.37 17.75 9.37 18.25ZM17.25 16.37C16.87 16.37 16.51 16.48 16.2 16.69C15.89 16.89 15.65 17.18 15.51 17.53C15.37 17.87 15.33 18.25 15.41 18.61C15.48 18.97 15.66 19.31 15.92 19.57C16.18 19.83 16.52 20.01 16.88 20.08C17.24 20.16 17.62 20.12 17.96 19.98C18.31 19.84 18.6 19.6 18.8 19.29C19.01 18.98 19.12 18.62 19.12 18.25C19.12 17.75 18.92 17.27 18.57 16.92C18.22 16.57 17.74 16.37 17.25 16.37ZM22.07 5.08L19.51 13.39C19.35 13.93 19.02 14.4 18.56 14.73C18.11 15.07 17.56 15.25 17 15.25L7.77 15.25C7.2 15.24 6.65 15.06 6.19 14.71C5.74 14.37 5.4 13.89 5.25 13.34L2.04 2.12L1.12 2.12C0.82 2.12 0.54 2 0.32 1.79C0.11 1.58 0 1.29 0 1C0 0.7 0.11 0.41 0.32 0.2C0.54 -0.01 0.82 -0.13 1.12 -0.13L2.32 -0.13C2.73 -0.13 3.12 0 3.45 0.25C3.78 0.5 4.01 0.84 4.12 1.23L4.81 3.62L21 3.62C21.17 3.62 21.34 3.66 21.5 3.74C21.66 3.82 21.8 3.94 21.9 4.08C22 4.22 22.07 4.38 22.1 4.56C22.13 4.73 22.12 4.91 22.07 5.08ZM19.47 5.87L5.45 5.87L7.41 12.72C7.43 12.8 7.48 12.87 7.54 12.92C7.61 12.97 7.69 13 7.77 13L17 13C17.08 13 17.16 12.97 17.23 12.92C17.29 12.87 17.34 12.81 17.36 12.73L19.47 5.87Z" fill="#000000" fill-opacity="1.000000" fill-rule="nonzero"/>
</svg>
