<svg width="21.000000" height="21.000000" viewBox="0 0 21 21" fill="none" xmlns="http://www.w3.org/2000/svg" xmlns:xlink="http://www.w3.org/1999/xlink">
	<desc>
			Created with Pixso.
	</desc>
	<defs/>
	<path id="Vector" d="M19.79 18.2L15.34 13.75C16.67 12.01 17.3 9.82 17.08 7.64C16.87 5.46 15.83 3.44 14.18 1.99C12.53 0.55 10.4 -0.22 8.2 -0.14C6.01 -0.07 3.93 0.83 2.38 2.38C0.83 3.93 -0.07 6.01 -0.14 8.2C-0.22 10.4 0.55 12.53 1.99 14.18C3.44 15.83 5.46 16.87 7.64 17.08C9.82 17.3 12.01 16.67 13.75 15.34L18.2 19.8C18.31 19.9 18.43 19.98 18.57 20.04C18.7 20.1 18.85 20.13 19 20.13C19.15 20.13 19.29 20.1 19.43 20.04C19.57 19.98 19.69 19.9 19.79 19.8C19.9 19.69 19.98 19.57 20.04 19.43C20.1 19.29 20.12 19.15 20.12 19C20.12 18.85 20.1 18.7 20.04 18.57C19.98 18.43 19.9 18.31 19.79 18.2L19.79 18.2ZM2.12 8.5C2.12 7.23 2.49 6 3.19 4.95C3.89 3.9 4.89 3.09 6.06 2.61C7.22 2.12 8.5 2 9.74 2.24C10.98 2.49 12.11 3.1 13 3.99C13.89 4.88 14.5 6.01 14.75 7.25C14.99 8.49 14.87 9.77 14.38 10.93C13.9 12.1 13.09 13.1 12.04 13.8C10.99 14.5 9.76 14.87 8.5 14.87C6.8 14.87 5.18 14.2 3.99 13C2.79 11.81 2.12 10.19 2.12 8.5Z" fill="#000000" fill-opacity="0.400000" fill-rule="nonzero"/>
</svg>
