<svg width="21.000000" height="21.000000" viewBox="0 0 21 21" fill="none" xmlns="http://www.w3.org/2000/svg" xmlns:xlink="http://www.w3.org/1999/xlink">
	<desc>
			Created with Pixso.
	</desc>
	<defs/>
	<path id="Vector" d="M10 -0.13C7.99 -0.13 6.03 0.46 4.37 1.58C2.7 2.69 1.41 4.27 0.64 6.12C-0.13 7.97 -0.33 10.01 0.06 11.97C0.46 13.93 1.42 15.74 2.84 17.15C4.25 18.57 6.06 19.53 8.02 19.93C9.98 20.32 12.02 20.12 13.87 19.35C15.72 18.58 17.3 17.29 18.41 15.62C19.53 13.96 20.12 12 20.12 10C20.12 7.31 19.05 4.74 17.15 2.84C15.25 0.94 12.68 -0.13 10 -0.13ZM5.45 16.42C5.98 15.71 6.66 15.13 7.45 14.73C8.24 14.33 9.11 14.12 10 14.12C10.88 14.12 11.75 14.33 12.54 14.73C13.33 15.13 14.01 15.71 14.54 16.42C13.21 17.36 11.62 17.87 10 17.87C8.37 17.87 6.78 17.36 5.45 16.42ZM7.37 9.25C7.37 8.73 7.52 8.22 7.81 7.79C8.1 7.35 8.51 7.02 8.99 6.82C9.47 6.62 10 6.57 10.51 6.67C11.02 6.77 11.48 7.02 11.85 7.39C12.22 7.76 12.47 8.22 12.57 8.73C12.67 9.24 12.62 9.77 12.42 10.25C12.22 10.73 11.89 11.14 11.45 11.43C11.02 11.72 10.51 11.87 10 11.87C9.3 11.87 8.63 11.59 8.14 11.1C7.65 10.61 7.37 9.94 7.37 9.25ZM16.18 14.86C15.45 13.94 14.52 13.19 13.46 12.67C14.14 11.98 14.6 11.12 14.78 10.17C14.96 9.23 14.86 8.25 14.49 7.36C14.12 6.48 13.5 5.72 12.7 5.19C11.9 4.65 10.96 4.37 10 4.37C9.03 4.37 8.09 4.65 7.29 5.19C6.49 5.72 5.87 6.48 5.5 7.36C5.13 8.25 5.03 9.23 5.21 10.17C5.39 11.12 5.85 11.98 6.53 12.67C5.47 13.19 4.54 13.94 3.81 14.86C2.89 13.7 2.32 12.31 2.16 10.84C2 9.37 2.26 7.88 2.9 6.55C3.55 5.22 4.56 4.1 5.81 3.31C7.06 2.53 8.51 2.11 9.99 2.11C11.47 2.11 12.92 2.53 14.17 3.31C15.42 4.1 16.43 5.22 17.08 6.55C17.72 7.88 17.98 9.37 17.82 10.84C17.66 12.31 17.09 13.7 16.17 14.86L16.18 14.86Z" fill="#000000" fill-opacity="1.000000" fill-rule="nonzero"/>
</svg>
