<svg width="167.000000" height="34.000000" viewBox="0 0 167 34" fill="none" xmlns="http://www.w3.org/2000/svg" xmlns:xlink="http://www.w3.org/1999/xlink">
	<desc>
			Created with Pixso.
	</desc>
	<defs/>
	<path id="Vector" d="M150.17 0.65L166.48 0.65L166.48 3.25C166 3.09 165.51 3.01 165.01 3.01L155.64 3.01L155.64 15.14L164.75 15.14C165.41 15.14 165.99 15.07 166.48 14.95L166.48 17.54C166.06 17.44 165.49 17.39 164.79 17.39L155.64 17.39L155.64 29.94L164.73 29.94C165.23 29.94 165.82 29.87 166.48 29.71L166.48 32.5L150.2 32.5C150.33 32.01 150.39 31.51 150.39 31L150.39 2.19C150.39 1.56 150.32 1.04 150.17 0.65ZM146.4 8.92L141.69 8.88C141.46 6.23 139.94 3.67 136.6 3.2C129.45 2.56 127.44 10.41 127.62 16.15C127.8 21.69 128.69 30.2 136.07 30.2C139.17 30.2 142.14 27.02 142.04 24.33L146.4 24.3C146.08 29.83 139.74 33.04 136.71 33.15C126.38 33.5 122.06 26.62 121.84 16.79C121.65 7.9 125.29 0 135.5 0C144.24 0.12 145.93 5.29 146.4 8.92ZM72.94 28.89L76.06 26.28C77.68 28.96 79.02 30.18 82.25 30.18C85.52 30.18 88.28 28.19 88.28 24.67C88.28 22.94 87.58 21.52 86.18 20.45C85.55 19.95 83.95 19.09 81.42 17.89C77.65 16.08 73.97 13.72 73.97 8.99C73.97 3.02 79.04 0.38 84.39 0.19C87.56 0.07 91.5 1.82 93.09 3.78L89.92 6.22C89.35 5.17 88.51 4.29 87.49 3.67C86.46 3.06 85.29 2.73 84.09 2.73C80.05 2.73 76.84 7.41 80.19 10.64C81.04 11.47 82.78 12.49 85.43 13.7C89.65 15.68 93.26 18.05 93.26 23.28C93.26 25.09 92.78 26.77 91.85 28.31C89.97 31.42 86.82 32.98 82.43 32.98C77.38 32.98 76.38 31.82 72.94 28.89ZM28.48 0.65L44.77 0.65L44.77 3.25C44.3 3.09 43.8 3.01 43.31 3.01L33.93 3.01L33.93 15.14L43.05 15.14C43.71 15.14 44.29 15.07 44.77 14.95L44.77 17.54C44.36 17.44 43.79 17.39 43.1 17.39L33.93 17.39L33.93 29.94L43.03 29.94C43.52 29.94 44.12 29.87 44.77 29.71L44.77 32.5L28.51 32.5C28.63 32.01 28.69 31.51 28.69 31L28.69 2.19C28.69 1.56 28.62 1.04 28.48 0.65ZM0 0.65L5.92 0.65L5.92 0.94C5.92 1.21 6 1.56 6.15 2.01L14.5 27.15L23.07 1.9C23.2 1.48 23.28 1.06 23.28 0.65L26.15 0.65C25.86 1.16 25.64 1.61 25.51 2.01L15.73 31.2C15.63 31.48 15.54 31.92 15.47 32.5L10.62 32.5C10.54 32.06 10.43 31.63 10.29 31.2L0.7 2.24C0.48 1.71 0.25 1.18 0.01 0.65L0 0.65ZM62.91 17.26C66.79 16.49 69.77 13.52 69.77 9.27C69.77 3.7 65.11 0.65 59.89 0.65L50.35 0.65C50.48 1.14 50.55 1.65 50.55 2.18L50.55 30.97C50.55 31.59 50.48 32.11 50.35 32.5L56.03 32.5C55.89 32 55.82 31.49 55.82 30.97L55.82 17.74L57.64 17.94L67.16 32.5L72.88 32.5L62.91 17.26ZM61.93 14.83C60.89 15.56 59.66 15.92 58.24 15.92L55.81 15.92L55.81 2.97L57.98 2.97C59.84 2.97 61.28 3.43 62.32 4.35C63.72 5.63 64.44 7.35 64.44 9.51C64.44 11.84 63.6 13.62 61.93 14.83L61.93 14.83ZM120.9 31.18L110.29 1.71C110.17 1.37 110.1 1.01 110.08 0.65L105.49 0.65C105.49 1.03 105.43 1.43 105.29 1.83L95 31.18C94.87 31.6 94.65 32.04 94.36 32.5L97.32 32.5C97.31 32.02 97.37 31.57 97.51 31.18L100.55 22.52L112.27 22.52L115.28 31.18C115.43 31.65 115.51 32.09 115.51 32.5L121.65 32.5C121.3 32.01 121.04 31.56 120.9 31.18ZM101.35 20.18L106.31 5.8L111.39 20.18L101.35 20.18Z" fill="#FFFFFF" fill-opacity="1.000000" fill-rule="evenodd"/>
</svg>
