<svg width="20.000000" height="20.000000" viewBox="0 0 20 20" fill="none" xmlns="http://www.w3.org/2000/svg" xmlns:xlink="http://www.w3.org/1999/xlink">
	<desc>
			Created with Pixso.
	</desc>
	<defs>
		<clipPath id="clip20_6">
			<rect id="Frame" width="20.000000" height="20.000000" fill="white" fill-opacity="0"/>
		</clipPath>
	</defs>
	<rect id="Frame" width="20.000000" height="20.000000" fill="#FFFFFF" fill-opacity="0"/>
	<g clip-path="url(#clip20_6)">
		<path id="Vector" d="M16.28 14.96C16.46 15.13 16.56 15.37 16.56 15.62C16.56 15.87 16.46 16.11 16.28 16.28C16.11 16.46 15.87 16.56 15.62 16.56C15.37 16.56 15.13 16.46 14.96 16.28L10 11.32L5.03 16.28C4.86 16.46 4.62 16.56 4.37 16.56C4.12 16.56 3.88 16.46 3.71 16.28C3.53 16.11 3.43 15.87 3.43 15.62C3.43 15.37 3.53 15.13 3.71 14.96L8.67 10L3.71 5.03C3.53 4.86 3.43 4.62 3.43 4.37C3.43 4.12 3.53 3.88 3.71 3.71C3.88 3.53 4.12 3.43 4.37 3.43C4.62 3.43 4.86 3.53 5.03 3.71L10 8.67L14.96 3.7C15.13 3.53 15.37 3.43 15.62 3.43C15.87 3.43 16.11 3.53 16.28 3.7C16.46 3.88 16.56 4.12 16.56 4.37C16.56 4.62 16.46 4.86 16.28 5.03L11.32 10L16.28 14.96Z" fill="#FFFFFF" fill-opacity="1.000000" fill-rule="nonzero"/>
	</g>
</svg>
