<svg width="91.000000" height="37.000000" viewBox="0 0 91 37" fill="none" xmlns="http://www.w3.org/2000/svg" xmlns:xlink="http://www.w3.org/1999/xlink">
	<desc>
			Created with Pixso.
	</desc>
	<defs/>
	<path id="Vector" d="M85.81 35.86L72.33 -0.97L72.32 -1L72.05 -1L69.28 6.57L64.22 20.35L64.21 20.34C62.46 18.81 59.99 17.85 56.87 17.49L55.92 17.4L56.87 17.28C62 16.36 65.45 13.14 65.45 9.27C65.45 3.95 60.41 0.24 53.2 0.24L38.18 0.24L38.18 0.51L42.54 0.51L42.54 27.98L31.95 -0.97L31.94 -1L31.67 -1L28.9 6.57L18.19 35.77L18.12 35.78C17.94 35.8 17.76 35.82 17.58 35.83C17.31 35.85 17.04 35.86 16.77 35.86L5.95 35.86L26.52 0.51L26.67 0.25L1.52 0.25L1.52 11.18L1.79 11.18C1.83 5.86 4.96 0.51 11.87 0.51L20.2 0.51L-0.52 36.13L27.39 36.13L27.39 25.65L27.13 25.65C27.09 30.29 24.44 34.7 18.67 35.7L18.49 35.73L22.88 23.75L35.18 23.75L39.62 35.86L35.24 35.86L35.24 36.13L52.41 36.13L52.41 35.86L48.02 35.86L48.02 17.59L53.09 17.59C58.24 17.59 61.2 19.88 61.2 23.86L61.2 27.1C61.2 27.46 61.23 27.98 61.25 28.42L61.25 28.44L58.53 35.86L54.97 35.86L54.97 36.13L62.34 36.13L62.34 35.86L58.82 35.86L61.3 29.1C61.3 29.16 61.3 29.2 61.3 29.2L61.37 29.81L61.44 30.22C61.85 32.71 62.81 34.54 64.29 35.66L64.51 35.82C65.63 36.59 67.03 36.99 68.66 36.99C70.83 36.99 72.27 36.45 73.46 35.19L73.31 35.05C72.21 36.05 71.29 36.46 70.13 36.46C68.17 36.46 67.14 34.09 67.14 31.76L67.14 27.21C67.15 26.09 66.97 24.97 66.61 23.9L66.56 23.76L66.56 23.75L75.56 23.75L80 35.86L75.62 35.86L75.62 36.13L90.48 36.13L90.48 35.86L85.81 35.86ZM22.98 23.48L29.04 6.96L35.09 23.48L22.98 23.48ZM48.02 17.32L48.02 0.51L51.89 0.51C57.06 0.51 59.78 3.56 59.78 9.32C59.78 15.45 58.22 17.32 53.09 17.32L48.02 17.32ZM66.46 23.48L66.43 23.42C66.03 22.45 65.45 21.57 64.72 20.82L64.46 20.57L64.44 20.54L69.41 6.96L75.46 23.48L66.46 23.48Z" fill="#FFFFFF" fill-opacity="1.000000" fill-rule="nonzero"/>
</svg>
